<?xml version="1.0" encoding="UTF-8"?><svg id="_イヤー_1" xmlns="http://www.w3.org/2000/svg" viewBox="0 0 795.59 708.32"><defs><style>.cls-1{fill:#5596d2;}.cls-2{font-family:KozGoPr6N-Regular-90ms-RKSJ-H, 'Kozuka Gothic Pr6N';font-size:16px;}.cls-2,.cls-3{fill:#fff;}.cls-4{fill:#991d32;}.cls-5{fill:#f9954d;}.cls-6{fill:#ad1423;}.cls-7{fill:#bb0f1a;}.cls-8{fill:#c4b584;}.cls-9{fill:#969795;}.cls-10{fill:#f15a24;}.cls-11{fill:#cc744a;}.cls-12{fill:#3496c6;}.cls-13{fill:#8fa9dc;}.cls-14{fill:#92b939;}.cls-15{fill:#e6bc43;}.cls-16{fill:#5562ad;}.cls-17{fill:#1e4a8f;}.cls-18{fill:#318c66;}.cls-19{fill:#f27175;}.cls-20{fill:#5fb15d;}.cls-21{fill:none;}.cls-22{fill:#77c9bc;}.cls-23{fill:#999;}.cls-24{fill:#2c6cb7;}.cls-25{fill:#9c5cbe;}.cls-26{fill:#a00716;}.cls-27{fill:#f0cd4b;}.cls-28{fill:#fbb03b;}.cls-29{fill:#c3395b;}.cls-30{fill:#c51937;}</style></defs><rect class="cls-3" x="34.82" y="650.2" width="79.79" height="37.88"/><rect class="cls-3" x="2.91" y="611.27" width="76.19" height="69.66"/><path class="cls-3" d="M315.51,216.82v431.78H115.35c-16.63,0-30.15-13.53-30.15-30.15V216.82h230.31m20-20H65.2v421.62c0,27.7,22.45,50.15,50.15,50.15h220.16V196.82h0Z"/><polygon class="cls-30" points="441.67 128.88 363.52 128.88 363.52 684.11 376.41 684.11 376.41 705.44 429.81 705.44 429.81 684.11 441.67 684.11 441.67 128.88"/><path class="cls-30" d="M698.04,169.92l-60.12-45.64h-206.14V694.67c0,7.54,6.11,13.65,13.65,13.65h336.53c7.54,0,13.65-6.11,13.65-13.65V169.92h-97.56Zm15.85,468.38c0,5.35-4.34,9.69-9.69,9.69h-136.21c-5.35,0-9.69-4.34-9.69-9.69v-85.31c0-5.35,4.34-9.69,9.69-9.69h136.21c5.35,0,9.69,4.34,9.69,9.69v85.31Zm51.41-392.86c0,5.93-4.81,10.74-10.74,10.74H472.81c-5.93,0-10.74-4.81-10.74-10.74v-49.33c0-5.93,4.81-10.74,10.74-10.74h281.75c5.93,0,10.74,4.81,10.74,10.74v49.33Z"/><path class="cls-30" d="M416.99,0H141.33c-.24,0-.47,.02-.7,.04-.23,0-.46-.04-.7-.04H16.7C7.47,0,0,7.47,0,16.7V697c0,6.14,4.88,11.11,10.9,11.11H362.83c6.02,0,10.9-4.88,10.9-10.9V110.28h58.05V14.78c0-8.16-6.62-14.78-14.78-14.78Zm-80.98,668.84H150.51l-58.51-.77c-18.42-.06-26.76-10.27-26.84-28.76V197.07H336.48l-.47,443.74v28.03Z"/><g><circle class="cls-3" cx="61.12" cy="70.78" r="37.64"/><circle class="cls-17" cx="61.12" cy="70.78" r="30.75"/></g><g><circle class="cls-4" cx="129.17" cy="57.86" r="10.36"/><circle class="cls-15" cx="167.11" cy="57.86" r="10.36"/><circle class="cls-18" cx="205.05" cy="57.86" r="10.36"/></g><rect class="cls-21" x="2.84" y="107.47" width="63.4" height="46.56"/><polygon class="cls-7" points="100.9 169.92 .94 169.92 .94 155.92 96.28 155.92 157.88 110.28 431.77 110.28 431.77 124.28 162.5 124.28 100.9 169.92"/><path class="cls-26" d="M698.04,169.92h97.56v-4.42c0-5.29-4.29-9.58-9.58-9.58h-83.47l-60.12-45.64h-210.65v14h206.14l60.12,45.64Z"/><circle class="cls-28" cx="754.86" cy="591.1" r="20.6"/><path class="cls-6" d="M431.77,168.15v-2h0v-55.87h-58.05v1.06h0v21.28h0v33.53h0v2h0v6.37h0v2h0v454.79h0v2h0v6.37h0v2h0v63.36c0,1.81,1.47,3.28,3.28,3.28h51.5c1.81,0,3.28-1.47,3.28-3.28v-63.36h0v-2h0v-6.37h0v-2h0V176.52h0v-2h0v-6.37h0Zm-53.05-35.53h48.05v33.53h-48.05v-33.53Zm48.05,570.71h-48.05v-12.9h48.05v12.9Zm0-34.19h-48.05v-27.45h48.05v27.45Zm0-29.45h-48.05v-6.37h48.05v6.37Zm0-8.37h-48.05V176.52h48.05v454.79Zm0-456.79h-48.05v-6.37h48.05v6.37Z"/><g><path class="cls-3" d="M752.98,560.74c-.15,0-.29-.05-.41-.15l-4.21-3.61h-2.9c-.35,0-.63-.28-.63-.63h0v-6.27c0-.35,.28-.63,.63-.63h2.9l4.21-3.61c.26-.23,.66-.2,.88,.07,.1,.11,.15,.26,.15,.41v13.8c0,.35-.28,.63-.63,.63Zm-6.9-5.02h2.51c.15,0,.29,.05,.41,.15l3.35,2.88v-11.07l-3.35,2.88c-.11,.1-.26,.15-.41,.15h-2.51v5.02Z"/><path class="cls-3" d="M755.85,556c-.35,0-.63-.28-.63-.63,0-.17,.07-.33,.18-.44,.94-.94,.94-2.47,0-3.41h0c-.24-.25-.24-.64,0-.89,.24-.24,.64-.24,.89,0,1.43,1.43,1.43,3.75,0,5.19h0c-.12,.12-.28,.19-.44,.19Z"/><path class="cls-3" d="M758.5,558.68c-.35,0-.63-.28-.63-.63,0-.17,.07-.33,.18-.44,2.43-2.42,2.43-6.36,0-8.78h0c-.24-.25-.24-.65,0-.89,.24-.24,.64-.24,.89,0,2.92,2.91,2.92,7.64,0,10.56h0c-.12,.12-.28,.19-.44,.19Z"/><path class="cls-3" d="M761.15,561.37c-.35,0-.63-.28-.63-.63,0-.17,.07-.33,.18-.44,3.91-3.91,3.91-10.25,0-14.16h0c-.24-.25-.24-.65,0-.89,.24-.24,.64-.24,.88,0,4.4,4.4,4.4,11.53,0,15.93h0c-.12,.12-.28,.19-.44,.19Z"/></g><polygon class="cls-23" points="495.28 554.63 488.8 565.85 501.75 565.85 495.28 554.63"/><path d="M509.01,574.13v-21c0-1.79-1.45-3.23-3.23-3.23h-21c-1.79,0-3.23,1.45-3.23,3.23v21c0,1.79-1.45,3.23-3.23,3.23h-21c-1.79,0-3.23,1.45-3.23,3.23v21c0,1.79,1.45,3.23,3.23,3.23h21c1.79,0,3.23,1.45,3.23,3.23v21c0,1.79,1.45,3.23,3.23,3.23h21c1.79,0,3.23-1.45,3.23-3.23v-21c0-1.79,1.45-3.23,3.23-3.23h21c1.79,0,3.23-1.45,3.23-3.23v-21c0-1.79-1.45-3.23-3.23-3.23h-21c-1.79,0-3.23-1.45-3.23-3.23Z"/><g><rect class="cls-10" x="563.46" y="523.41" width="71.4" height="14.47"/><rect class="cls-12" x="637.35" y="523.41" width="71.4" height="14.47"/></g><rect class="cls-6" x="565.36" y="499.95" width="67.6" height="18.04"/><text class="cls-2" transform="translate(567.4 514.7)"><tspan x="0" y="0">けってい</tspan></text><rect class="cls-6" x="639.24" y="499.95" width="67.6" height="18.04"/><text class="cls-2" transform="translate(640.98 514.7)"><tspan x="0" y="0">いちらん</tspan></text><g><rect class="cls-3" x="483.11" y="299.68" width="45.16" height="45.16" rx="8.54" ry="8.54"/><rect class="cls-3" x="483.11" y="353.68" width="45.16" height="45.16" rx="8.54" ry="8.54"/><rect class="cls-3" x="484.9" y="406.94" width="43.36" height="43.36" rx="8.2" ry="8.2"/><rect class="cls-3" x="537.11" y="299.68" width="45.16" height="45.16" rx="8.54" ry="8.54"/><rect class="cls-3" x="536.92" y="353.49" width="45.53" height="45.53" rx="8.61" ry="8.61"/><rect class="cls-3" x="538.82" y="409.39" width="41.73" height="41.73" rx="7.89" ry="7.89"/><rect class="cls-3" x="591.11" y="299.68" width="45.16" height="45.16" rx="8.54" ry="8.54"/><rect class="cls-3" x="591.62" y="355.01" width="42.49" height="42.49" rx="8.04" ry="8.04"/><rect class="cls-3" x="591.76" y="408.34" width="43.84" height="43.84" rx="8.29" ry="8.29"/><rect class="cls-3" x="644.44" y="299.02" width="46.48" height="46.48" rx="8.79" ry="8.79"/><rect class="cls-3" x="647.01" y="355.59" width="41.34" height="41.34" rx="7.82" ry="7.82"/><rect class="cls-3" x="646.35" y="408.92" width="42.67" height="42.67" rx="8.07" ry="8.07"/><rect class="cls-3" x="698.43" y="299" width="46.51" height="46.51" rx="8.8" ry="8.8"/><rect class="cls-3" x="700.73" y="355.3" width="41.91" height="41.91" rx="7.93" ry="7.93"/><rect class="cls-3" x="700.82" y="409.39" width="41.73" height="41.73" rx="7.89" ry="7.89"/><g><path class="cls-27" d="M682.86,297.85h-30.35c-5.1,0-9.23,4.13-9.23,9.23v30.35c0,5.1,4.13,9.23,9.23,9.23h30.35c5.1,0,9.23-4.13,9.23-9.23v-30.35c0-5.1-4.13-9.23-9.23-9.23Zm-10.74,37.89l-13.07-16.88,6.48-.2-3.38-9.89h8.95l5.22,14.99h-7.57l3.38,11.97Z"/><path class="cls-20" d="M736.86,297.85h-30.35c-5.1,0-9.23,4.13-9.23,9.23v30.35c0,5.1,4.13,9.23,9.23,9.23h30.35c5.1,0,9.23-4.13,9.23-9.23v-30.35c0-5.1-4.13-9.23-9.23-9.23Zm-4.01,31.42c-3.01,5.08-10.27,9.32-17.33,4.68l4.01-6.09c1.52-.4,6.64-1.65,6.64-1.65l-5.5-.08,2.4-3.65,4.3-.5-3.22-1.15,3.66-5.56-4.05,4.77-1.69-2.82,.35,4.4-2.42,2.85-2.45-4.07,.62,6.22-4.77,5.62c-6.72-6.28-4.61-14.31,.1-18.23,4.86-4.04,19.16-5.44,19.16-5.44,0,0,3.47,15.18,.19,20.7Z"/><path class="cls-22" d="M520.86,351.85h-30.35c-5.1,0-9.23,4.13-9.23,9.23v30.35c0,5.1,4.13,9.23,9.23,9.23h30.35c5.1,0,9.23-4.13,9.23-9.23v-30.35c0-5.1-4.13-9.23-9.23-9.23Zm-14.61,14.88l7.53-4.35v8.7l-7.53,4.35v-8.7Zm-16.63,9.64l7.53-4.35,7.53,4.35-7.53,4.35-7.53-4.35Zm15.5,9.42l-7.53,4.35v-8.7l7.53-4.35v8.7Zm.08-10.34l-7.53-4.35v-8.7l7.53,4.35v8.7Zm.98,10.32v-8.7l7.53,4.35v8.7l-7.53-4.35Zm8.05-5.27l-7.53-4.35,7.53-4.35,7.53,4.35-7.53,4.35Z"/><path class="cls-29" d="M574.86,351.85h-30.35c-5.1,0-9.23,4.13-9.23,9.23v30.35c0,5.1,4.13,9.23,9.23,9.23h30.35c5.1,0,9.23-4.13,9.23-9.23v-30.35c0-5.1-4.13-9.23-9.23-9.23Zm-4.58,28.93c-1.94,8.67-11.02,7.59-14.39,6.12-3.83-1.66-7.12-6.02-6.77-10.07,.24-2.77,2.87-4.39,2.87-4.39v4.26s-.03,.58,.5,.58c.58,0,.53-.63,.53-.63v-10.61s.76-1.45,1.87-1.45,1.05,1.76,2.36,1.77c1,0,.85-1.37,2.43-1.37s1.13,2.32,2.58,2.37c.79,.03,.84-1.19,2.2-1.19s1.01,2.41,2.09,2.76c1.08,.35,.97-.78,2.16-.78s1.57,1.57,1.57,1.57v11.05Z"/><path class="cls-13" d="M736.86,351.85h-30.35c-5.1,0-9.23,4.13-9.23,9.23v30.35c0,5.1,4.13,9.23,9.23,9.23h30.35c5.1,0,9.23-4.13,9.23-9.23v-30.35c0-5.1-4.13-9.23-9.23-9.23Zm-17.13,23.58c5.25,1.25,12.88-3.03,12.88-3.03-3.27,5.81-12.59,8.01-12.59,8.01,3.27,1.13,9.01-1.84,9.01-1.84-1.98,3.96-9.64,5.63-9.64,5.63,2.75,.91,6.61-.47,6.61-.47-4.9,6.66-10.65,5.32-14.17,3.56-3.53-1.76-4.47-7.05-3.95-9.73,.52-2.68,4.57-7.27,10.23-7.12,7.25,.19,17.51-6.64,17.51-6.64-2.25,8.36-15.89,11.64-15.89,11.64Z"/><path class="cls-19" d="M520.86,405.85h-30.35c-5.1,0-9.23,4.13-9.23,9.23v30.35c0,5.1,4.13,9.23,9.23,9.23h30.35c5.1,0,9.23-4.13,9.23-9.23v-30.35c0-5.1-4.13-9.23-9.23-9.23Zm-5.55,25.9c-2.66,5.86-11.38,6.32-13.28-.31-1.05-3.48,2.29-7.42,5.92-6.42,2.19,.57,3.73,3.24,2.53,5.29-1.04,1.98-4.16,2.09-4.71-.21,.78,1.8,3.26,1.45,3.83-.22,.58-1.45-.68-3.03-2.04-3.16-1.33-.24-2.74,.84-3.11,2.1-.43,1.32,.16,2.72,1.17,3.59,3.78,3.04,8.62-2.07,6.64-6.02-4.43-8.6-15.84-1.81-13.93,6.57,1.44,7.29,10.68,9.09,16.75,5.82-6.2,5.04-17.07,3.29-19.32-5.18-1.94-6.21,2.44-13.37,8.88-14.46,6.89-1.5,13.85,5.95,10.68,12.62Z"/><path class="cls-14" d="M574.86,405.85h-30.35c-5.1,0-9.23,4.13-9.23,9.23v30.35c0,5.1,4.13,9.23,9.23,9.23h30.35c5.1,0,9.23-4.13,9.23-9.23v-30.35c0-5.1-4.13-9.23-9.23-9.23Zm-20.28,37.51s-12.86-7.31-2.84-19.67c0,0,1.23,3.59,5.68,3.81,0,0,4.15,9.31-2.84,15.85Zm-1.02-20.83c1.04-.65,2.06-1.06,3.05-1.33-.33-.45-.71-.98-.9-1.23-.3-.42-1.09-1.49-1.39-1.89-.03-.3-.07-.6-.05-.93,.32,.09,.59,.21,.87,.33,.29,.4,1.08,1.48,1.38,1.89,.24,.34,.8,1.1,1.16,1.59,1.34-.22,2.58-.17,3.67,.02,.36-.49,.83-1.14,1.05-1.44,.3-.41,1.09-1.49,1.38-1.89,.27-.12,.55-.25,.87-.33,.01,.33-.02,.63-.05,.93-.29,.39-1.09,1.48-1.39,1.89-.17,.23-.49,.67-.79,1.08,1.91,.51,3.13,1.32,3.13,1.32-5.82,6.14-11.99,0-11.99,0Zm11.22,20.83c-6.99-6.54-2.84-15.85-2.84-15.85,4.45-.22,5.68-3.81,5.68-3.81,10.02,12.36-2.84,19.67-2.84,19.67Z"/><path class="cls-8" d="M628.86,405.85h-30.35c-5.1,0-9.23,4.13-9.23,9.23v30.35c0,5.1,4.13,9.23,9.23,9.23h30.35c5.1,0,9.23-4.13,9.23-9.23v-30.35c0-5.1-4.13-9.23-9.23-9.23Zm-27.52,30.05l-.65-5.86,8.83-9.55h11.71l-2.4,9.29-11.81,7.82-5.68-1.7Zm13.69,4.11l-6.14-1.84,10.44-6.91,2.87,3.51-7.16,5.24Zm8.38-6.13l-3.1-3.81,2.39-9.24,3.98,10.65-3.26,2.39Z"/><g><path class="cls-16" d="M671.78,427.06c-.8,1.88-2.71,1.46-2.71,1.46-.41,.6,.33,3.32,2.81,1.89,2.44-1.7-.1-3.35-.1-3.35Z"/><path class="cls-16" d="M663.2,427.06s-2.54,1.65-.1,3.35c2.48,1.44,3.22-1.29,2.81-1.89,0,0-1.91,.42-2.71-1.46Z"/><path class="cls-16" d="M682.86,405.85h-30.35c-5.1,0-9.23,4.13-9.23,9.23v30.35c0,5.1,4.13,9.23,9.23,9.23h30.35c5.1,0,9.23-4.13,9.23-9.23v-30.35c0-5.1-4.13-9.23-9.23-9.23Zm-5.36,34.9c-1.93,.51-4.34,.88-9.81,.88-6.28,0-11.38-5.09-11.38-11.38s5.09-11.38,11.38-11.38,11.38,5.09,11.38,11.38c0,3.63-1.71,6.86-4.36,8.94,.69,.6,1.62,1.22,2.8,1.55Z"/></g><g><path class="cls-9" d="M505.68,314.92c-4.04,0-7.33,3.29-7.33,7.34s3.29,7.33,7.33,7.33,7.33-3.29,7.33-7.33-3.29-7.34-7.33-7.34Z"/><path class="cls-9" d="M520.86,297.85h-30.35c-5.1,0-9.23,4.13-9.23,9.23v30.35c0,5.1,4.13,9.23,9.23,9.23h30.35c5.1,0,9.23-4.13,9.23-9.23v-30.35c0-5.1-4.13-9.23-9.23-9.23Zm-15.17,36.74c-6.8,0-12.33-5.53-12.33-12.33s5.53-12.34,12.33-12.34,12.33,5.53,12.33,12.34-5.53,12.33-12.33,12.33Z"/></g><path class="cls-5" d="M574.86,297.85h-30.35c-5.1,0-9.23,4.13-9.23,9.23v30.35c0,5.1,4.13,9.23,9.23,9.23h30.35c5.1,0,9.23-4.13,9.23-9.23v-30.35c0-5.1-4.13-9.23-9.23-9.23Zm-11.38,34.08c3.29-2.74,1.36-5.77,1.36-5.77-1.69,4.33-4.2,3.45-4.2,3.45,2.16-2.06,1.06-3.73,.42-4.35s-2.39-.94-3.54,.33c-1.14,1.27-.55,3.07-.55,3.07-.96-.59-.98-2.52-.98-2.52,0,0-1.47,2.18,.64,5.39,2.98,4.53,9.11,2.5,9.11,2.5-5.99,4.02-11.17,2.76-14.58-2.25-3.58-5.28-.96-10.94-.96-10.94-.01,1.85,1.57,1.98,1.57,1.98,0,0,.09-5.07,4.87-6.44,3.47-.99,2.79-8.3,2.79-8.3,3.61,3.83,2.69,7.48,2.37,8.25-.32,.78-.67,3.64,1.88,3.59,2.68-.05,1.19-4.09,1.19-4.09,0,0,5.13,1.4,5.23,8.37,.09,6.97-6.62,7.73-6.62,7.73Z"/><g><path class="cls-1" d="M609.19,325.84c-1.51,6.2,5.69,8.72,7.94,2.51-.95,.52-1.8,1.01-2.63,1.33-2.9,1.33-4.11-1.67-5.31-3.84Z"/><path class="cls-1" d="M628.86,297.85h-30.35c-5.1,0-9.23,4.13-9.23,9.23v30.35c0,5.1,4.13,9.23,9.23,9.23h30.35c5.1,0,9.23-4.13,9.23-9.23v-30.35c0-5.1-4.13-9.23-9.23-9.23Zm-15.17,36.57c-16.48,0,0-24.33,0-24.33,0,0,16.48,24.33,0,24.33Z"/></g><g><path class="cls-25" d="M613.68,368.56c-4.42,0-8.01,2.68-8.01,5.99s3.58,5.99,8.01,5.99,8.01-2.68,8.01-5.99-3.58-5.99-8.01-5.99Z"/><path class="cls-25" d="M628.86,351.85h-30.35c-5.1,0-9.23,4.13-9.23,9.23v30.35c0,5.1,4.13,9.23,9.23,9.23h30.35c5.1,0,9.23-4.13,9.23-9.23v-30.35c0-5.1-4.13-9.23-9.23-9.23Zm-8.36,30.38c1.17,1.32,1.4,3.05,.47,3.98-.98,.98-2.85,.69-4.18-.65-.19-.19-.35-.4-.5-.61-.3,1.44-1.25,2.5-2.4,2.5-1.24,0-2.26-1.24-2.46-2.86-.19,.34-.43,.67-.73,.97-1.33,1.33-3.21,1.62-4.18,.65-.92-.92-.71-2.62,.43-3.93-2.9-1.71-4.76-4.5-4.76-7.73,0-5.32,5.05-9.49,11.51-9.49s11.51,4.17,11.51,9.49c0,3.2-1.83,5.97-4.69,7.68Z"/></g><path class="cls-11" d="M682.86,351.85h-30.35c-5.1,0-9.23,4.13-9.23,9.23v30.35c0,5.1,4.13,9.23,9.23,9.23h30.35c5.1,0,9.23-4.13,9.23-9.23v-30.35c0-5.1-4.13-9.23-9.23-9.23Zm-27.88,33.73l4.39-12.57h3.22l-4.39,12.57h-3.22Zm5.8,0l6.49-18.65h6.49l6.64,18.65h-19.61Z"/><g><path class="cls-24" d="M711.54,426.83l1.91-.06s1.81-.8,2.54-2.15l-.15-1.87s-3.02,1.77-4.3,4.09Z"/><path class="cls-24" d="M736.86,405.85h-30.35c-5.1,0-9.23,4.13-9.23,9.23v30.35c0,5.1,4.13,9.23,9.23,9.23h30.35c5.1,0,9.23-4.13,9.23-9.23v-30.35c0-5.1-4.13-9.23-9.23-9.23Zm-15.17,39.57c-12.21,0-13.42-11.81-13.42-11.81,1.39,5.48,7.28,8.23,7.28,8.23-4.86-2.42-5.26-6.42-5.26-6.42,2.12,3.66,6.03,4.92,6.03,4.92-2.82-1.3-3.12-3.69-3.12-3.69,.96,1.33,3.54,2.44,3.54,2.44-1.01-.87-1.2-2.17-1.2-2.17,0,0,2.27,2.47,4.89,2.33,3.26-.18,7.1-1.76,6.74-7.09-.26-3.89-4.01-5.43-4.01-5.43,.66-1.87-.87-3.45-.87-3.45,1.48,2.73-.43,4.23-.43,4.23l-15.44,3.68c1.51-1.6,4.93-8.45,4.93-8.45,9.9-6.59,12.16-11.07,12.16-11.07,.07,3.82-2.27,6.85-2.27,6.85,4.4-.17,8.58,2.23,12.25,7.26,3.66,5.03,.43,19.67-11.78,19.67Z"/></g></g></g></svg>